<svg width="18" height="12" viewBox="0 0 18 12" fill="none" xmlns="http://www.w3.org/2000/svg">
  <path fill-rule="evenodd" clip-rule="evenodd" d="M14.025 0.6L17.175 3.225C17.775 3.75 18.075 4.35 17.925 5.1C17.925 6 17.7 6.825 17.325 7.65L16.575 9.075C16.35 9.45 15.975 9.675 15.6 9.675C15.45 10.95 14.4 11.925 13.05 11.925C11.775 11.925 10.65 10.95 10.5 9.675H7.42495C7.27495 10.95 6.14995 11.925 4.87495 11.925C3.59995 11.925 2.47495 10.95 2.32495 9.675H2.24995C1.04995 9.675 0.0749512 8.7 0.0749512 7.5C0.0749512 7.275 0.149951 6.975 0.299951 6.675C0.149951 6.6 0.0749512 6.525 0.0749512 6.375C0.0749512 6.15 0.224951 6 0.449951 6H0.599951L1.34995 4.5H0.449951C0.224951 4.5 0.0749512 4.35 0.0749512 4.125C0.0749512 3.9 0.224951 3.75 0.449951 3.75H1.72495L2.47495 2.25H0.449951C0.224951 2.25 0.0749512 2.1 0.0749512 1.875C0.0749512 1.65 0.224951 1.5 0.449951 1.5H2.84995L2.99995 1.2C3.37495 0.45 4.12495 0 4.94995 0H12.45C12.975 0 13.575 0.225 14.025 0.6ZM3.07495 9.375C3.07495 10.425 3.89995 11.25 4.94995 11.25C5.99995 11.25 6.82495 10.425 6.82495 9.375C6.82495 8.325 5.99995 7.5 4.94995 7.5C3.89995 7.5 3.07495 8.325 3.07495 9.375ZM13.2 11.25C12.15 11.25 11.325 10.425 11.325 9.375C11.325 8.325 12.15 7.5 13.2 7.5C14.25 7.5 15.075 8.325 15.075 9.375C15.075 10.425 14.25 11.25 13.2 11.25ZM16.05 8.775L16.8 7.35C17.1397 6.80639 17.2948 6.01651 17.4325 5.31505C17.4468 5.24229 17.4609 5.17048 17.475 5.1C17.475 4.575 17.25 4.05 16.875 3.75L13.725 1.125C13.425 0.9 12.975 0.75 12.6 0.75H5.09995C4.57495 0.75 4.04995 1.05 3.82495 1.5H5.84995C6.07495 1.5 6.22495 1.65 6.22495 1.875C6.22495 2.1 6.07495 2.25 5.84995 2.25H3.44995L2.69995 3.75H4.34995C4.57495 3.75 4.72495 3.9 4.72495 4.125C4.72495 4.35 4.57495 4.5 4.34995 4.5H2.32495L1.57495 6H2.84995C3.07495 6 3.22495 6.15 3.22495 6.375C3.22495 6.6 3.07495 6.75 2.84995 6.75H1.19995L1.12495 6.9C1.04995 7.125 0.974951 7.35 0.974951 7.575C0.974951 8.325 1.57495 9 2.39995 9H2.47495C2.62495 7.725 3.74995 6.75 5.02495 6.75C6.29995 6.75 7.42495 7.725 7.57495 9H10.65C10.8 7.725 11.85 6.75 13.2 6.75C14.475 6.75 15.525 7.725 15.75 9C15.9 8.925 15.975 8.85 16.05 8.775Z" fill="#119D0E" />
</svg>
