<svg width="14" height="18" viewBox="0 0 14 18" fill="none" xmlns="http://www.w3.org/2000/svg">
  <path fill-rule="evenodd" clip-rule="evenodd" d="M13.6728 6.48C13.6728 10.0526 10.7661 12.96 7.19277 12.96C3.61941 12.96 0.712769 10.0526 0.712769 6.48C0.712769 2.90736 3.61941 0 7.19277 0C10.7661 0 13.6728 2.90736 13.6728 6.48ZM12.0132 12.4301L13.6173 16.7069C13.6612 16.7666 13.6872 16.8401 13.6872 16.92C13.6872 17.1187 13.5259 17.28 13.3272 17.28C13.3236 17.28 13.3185 17.2807 13.3128 17.28C13.258 17.28 13.2033 17.2678 13.1515 17.2426L10.4587 15.8962L8.47221 17.2202C8.37933 17.2829 8.26197 17.2973 8.15613 17.2613C8.04957 17.2246 7.96677 17.141 7.93077 17.0345L7.23597 14.9494L6.44973 17.0467C6.41229 17.149 6.32877 17.2289 6.22365 17.2627C6.11925 17.2951 6.00405 17.28 5.91333 17.2195L3.92685 15.8954L1.23405 17.2418C1.18221 17.2678 1.12749 17.28 1.07277 17.28C0.985649 17.28 0.899969 17.2483 0.832289 17.1871C0.722129 17.0885 0.684689 16.9322 0.736529 16.7933L2.37237 12.4301C2.41197 12.3242 2.49909 12.2429 2.60709 12.2112C2.71293 12.1795 2.83173 12.1997 2.92245 12.2674C4.17381 13.1911 5.64909 13.68 7.19277 13.68C7.20151 13.68 7.2096 13.6829 7.21787 13.6858C7.22459 13.6881 7.23143 13.6906 7.23885 13.6915C7.24706 13.6897 7.25507 13.6868 7.2631 13.684C7.27691 13.6791 7.29078 13.6742 7.30581 13.6742C8.81133 13.6505 10.2492 13.1645 11.4631 12.2674C11.5531 12.1997 11.6726 12.1795 11.7784 12.2112C11.8864 12.2436 11.9736 12.325 12.0132 12.4301Z" fill="#EDAA1A" />
</svg>
